# xmcd
#
# Track frame offsets: 
#        150
#        39225
#        71850
#        117375
#        155700
#        197475
#        240450
#        248200
#        282075
#
# Disc length: 4173 seconds
#
# Revision: 1
# Processed by: cddbd v1.5.2PL0 Copyright (c) Steve Scherf et al.
# Submitted via: ExactAudioCopyFreeDBPlugin 1.0
#
DISCID=7b104b09
DTITLE=Nicolas Simion Trio - Back to the Roots
DYEAR=1997
DGENRE=Jazz
TTITLE0=Walking the fish
TTITLE1=Bella ragazza
TTITLE2=Transsylvanian dance
TTITLE3=Jenny's dream
TTITLE4=Mountain talk
TTITLE5=Unfinished column
TTITLE6=Prelude a l' unison
TTITLE7=Tales retold
TTITLE8=Happy house
EXTD=YEAR: 1997
EXTT0=
EXTT1=
EXTT2=
EXTT3=
EXTT4=
EXTT5=
EXTT6=
EXTT7=
EXTT8=
PLAYORDER=
